<svg version="1.1" id="Layer_1" xmlns="http://www.w3.org/2000/svg" xmlns:xlink="http://www.w3.org/1999/xlink" x="0px" y="0px" width="16px" height="16px" viewBox="0 0 16 16" enable-background="new 0 0 16 16" xml:space="preserve">
  <g id="main">
    <g id="icon">
      <path d="M0.3715,0.04785L0.1781,0.1781L0.04785,0.3715L0,0.6082L0,2.392L0.04785,2.629L0.1781,2.822L0.3715,2.952L0.6082,3L13.39,3L13.63,2.952L13.82,2.822L13.95,2.628L14,2.392L14,0.6082L13.95,0.3715L13.82,0.1781L13.63,0.04785L13.39,0L0.6082,0zz" fill="#cfcfcf"/>
      <path d="M0.3715,5.548L0.1781,5.678L0.04785,5.871L0,6.108L0,7.892L0.04785,8.129L0.1781,8.322L0.3715,8.452L0.6082,8.5L6.018,8.5L6.025,8.424L6.1,8.178L6.221,7.951L6.387,7.75L7.749,6.388L7.951,6.222L8.177,6.101L8.423,6.026L8.683,6.001L8.943,6.026L9.189,6.101L9.416,6.222L9.617,6.388L11.47,8.238L13.32,6.388L13.52,6.222L13.75,6.101L13.98,6.029L13.95,5.871L13.82,5.678L13.63,5.548L13.39,5.5L0.6082,5.5zz" fill="#cfcfcf"/>
      <path d="M0.3715,11.05L0.1781,11.18L0.04785,11.37L0,11.61L0,13.39L0.04785,13.63L0.1781,13.82L0.3715,13.95L0.6082,14L6.05,14L6.097,13.75L6.218,13.52L6.387,13.32L8.237,11.47L7.769,11L0.6082,11zz" fill="#cfcfcf"/>
    </g>
    <g id="overlay">
      <path d="M15.906,14.544l-1.362,1.362c-0.125,0.125,-0.329,0.125,-0.454,0l-2.622,-2.622l-2.557,2.557c-0.125,0.125,-0.329,0.125,-0.454,0l-1.362,-1.362c-0.125,-0.125,-0.125,-0.329,0,-0.454l2.557,-2.557L7.094,8.911c-0.125,-0.125,-0.125,-0.329,0,-0.454l1.362,-1.362c0.125,-0.125,0.329,-0.125,0.454,0l2.557,2.557l2.557,-2.557c0.125,-0.125,0.329,-0.125,0.454,0l1.362,1.362c0.125,0.125,0.125,0.329,0,0.454l-2.557,2.557l2.622,2.622C16.031,14.215,16.031,14.418,15.906,14.544z" fill-rule="evenodd" fill="#CD4C32"/>
    </g>
  </g>
</svg>