<svg version="1.1" id="Layer_1" xmlns="http://www.w3.org/2000/svg" xmlns:xlink="http://www.w3.org/1999/xlink" x="0px" y="0px" width="16px" height="16px" viewBox="0 0 16 16" enable-background="new 0 0 16 16" xml:space="preserve">
  <g id="main">
    <g id="icon">
      <path d="M0.6615,1.085L0.3172,1.317L0.08516,1.662L0,2.083L0,5.917L0.08516,6.338L0.3172,6.683L0.6615,6.915L1.083,7L8.917,7L9.338,6.915L9.683,6.683L9.915,6.339L10,5.918L10,2.083L9.915,1.662L9.683,1.317L9.339,1.085L8.918,1L1.083,1zz" fill="#cfcfcf"/>
      <path d="M5.662,8.085L5.317,8.317L5.085,8.662L5,9.083L5,12.92L5.085,13.34L5.317,13.68L5.662,13.91L6.083,14L6.739,14L7.081,13.2L7.284,12.9L7.579,12.69L7.779,12.4L12.18,8L6.083,8zz" fill="#cfcfcf"/>
    </g>
    <g id="overlay">
      <path d="M8.486,13.108l4.8635,-4.8635l1.4369,1.4369l-4.8635,4.8635L8.486,13.108zM14.4206,7.1734c0.1899,-0.1899,0.3832,-0.1899,0.5732,0l0.8637,0.8637c0.1899,0.1899,0.1899,0.3833,0,0.5732l-0.5809,0.5443l-1.4453,-1.4352L14.4206,7.1734zM7.031,15.8619l0.9699,-2.2687l1.4369,1.4369L7.169,16L7.031,15.8619z" fill-rule="evenodd" fill="#3E79B4"/>
    </g>
  </g>
</svg>