<svg version="1.1" id="Layer_1" xmlns="http://www.w3.org/2000/svg" xmlns:xlink="http://www.w3.org/1999/xlink" x="0px" y="0px" width="16px" height="16px" viewBox="0 0 16 16" enable-background="new 0 0 16 16" xml:space="preserve">
  <g id="main">
    <g id="icon">
      <path d="M0.3715,0.04785L0.1781,0.1781L0.04785,0.3715L0,0.6082L0,2.392L0.04785,2.629L0.1781,2.822L0.3715,2.952L0.6082,3L13.39,3L13.63,2.952L13.82,2.822L13.95,2.628L14,2.392L14,0.6082L13.95,0.3715L13.82,0.1781L13.63,0.04785L13.39,0L0.6082,0zz" fill="#cfcfcf"/>
      <path d="M0.3715,5.548L0.1781,5.678L0.04785,5.871L0,6.108L0,7.892L0.04785,8.129L0.1781,8.322L0.3715,8.452L0.6082,8.5L11.68,8.5L12.64,7.537L12.9,7.35L13.15,6.986L13.73,6.45L14,6.239L14,6.237L14,6.108L13.95,5.871L13.82,5.678L13.63,5.548L13.39,5.5L0.6082,5.5zz" fill="#cfcfcf"/>
      <path d="M0.3715,11.05L0.1781,11.18L0.04785,11.37L0,11.61L0,13.39L0.04785,13.63L0.1781,13.82L0.3715,13.95L0.6082,14L6.739,14L7.081,13.2L7.284,12.9L7.579,12.69L7.779,12.4L9.18,11L0.6082,11zz" fill="#cfcfcf"/>
    </g>
    <g id="overlay">
      <path d="M8.486,13.108l4.8635,-4.8635l1.4369,1.4369l-4.8635,4.8635L8.486,13.108zM14.4206,7.1734c0.1899,-0.1899,0.3832,-0.1899,0.5732,0l0.8637,0.8637c0.1899,0.1899,0.1899,0.3833,0,0.5732l-0.5809,0.5443l-1.4453,-1.4352L14.4206,7.1734zM7.031,15.8619l0.9699,-2.2687l1.4369,1.4369L7.169,16L7.031,15.8619z" fill-rule="evenodd" fill="#3E79B4"/>
    </g>
  </g>
</svg>