<svg version="1.1" id="Layer_1" xmlns="http://www.w3.org/2000/svg" xmlns:xlink="http://www.w3.org/1999/xlink" x="0px" y="0px" width="16px" height="16px" viewBox="0 0 16 16" enable-background="new 0 0 16 16" xml:space="preserve">
  <g id="icon">
    <path d="M14.3917,4H1.6083C1.2724,4,1,3.7276,1,3.3917V1.6083C1,1.2724,1.2724,1,1.6083,1h12.7833c0.336,0,0.6083,0.2724,0.6083,0.6083v1.7833C15,3.7276,14.7276,4,14.3917,4z" fill="#cfcfcf"/>
    <path d="M14.3917,9.5H1.6083C1.2724,9.5,1,9.2276,1,8.8917V7.1083C1,6.7724,1.2724,6.5,1.6083,6.5h12.7833c0.336,0,0.6083,0.2724,0.6083,0.6083v1.7833C15,9.2276,14.7276,9.5,14.3917,9.5z" fill="#cfcfcf"/>
    <path d="M14.3917,15H1.6083c-0.336,0,-0.6083,-0.2724,-0.6083,-0.6083v-1.7833c0,-0.336,0.2724,-0.6083,0.6083,-0.6083h12.7833c0.336,0,0.6083,0.2724,0.6083,0.6083v1.7833C15,14.7276,14.7276,15,14.3917,15z" fill="#cfcfcf"/>
  </g>
</svg>