<svg version="1.1" id="Layer_1" xmlns="http://www.w3.org/2000/svg" xmlns:xlink="http://www.w3.org/1999/xlink" x="0px" y="0px" width="32px" height="32px" viewBox="0 0 32 32" enable-background="new 0 0 32 32" xml:space="preserve">
  <g id="icon">
    <path d="M26.45,9h-20.9c-0.3038,0,-0.55,-0.2462,-0.55,-0.55v-2.9c0,-0.3038,0.2462,-0.55,0.55,-0.55h20.9c0.3038,0,0.55,0.2462,0.55,0.55v2.9C27,8.7538,26.7538,9,26.45,9zM27,17.45v-2.9c0,-0.3038,-0.2462,-0.55,-0.55,-0.55h-20.9c-0.3038,0,-0.55,0.2462,-0.55,0.55v2.9c0,0.3038,0.2462,0.55,0.55,0.55h20.9C26.7538,18,27,17.7538,27,17.45zM27,26.45v-2.9c0,-0.3038,-0.2462,-0.55,-0.55,-0.55h-20.9c-0.3038,0,-0.55,0.2462,-0.55,0.55v2.9c0,0.3038,0.2462,0.55,0.55,0.55h20.9C26.7538,27,27,26.7538,27,26.45z" fill="#797979"/>
  </g>
</svg>