<svg version="1.1" id="Layer_1" xmlns="http://www.w3.org/2000/svg" xmlns:xlink="http://www.w3.org/1999/xlink" x="0px" y="0px" width="16px" height="16px" viewBox="0 0 16 16" enable-background="new 0 0 16 16" xml:space="preserve">
  <g id="main">
    <g id="icon">
      <path d="M0.6615,1.085L0.3172,1.317L0.08516,1.662L0,2.083L0,5.917L0.08516,6.338L0.3172,6.683L0.6615,6.915L1.083,7L8.917,7L9.046,6.974L9.102,6.794L9.381,6.381L9.794,6.102L9.974,6.046L10,5.918L10,2.083L9.915,1.662L9.683,1.317L9.339,1.085L8.918,1L1.083,1zz" fill="#cfcfcf"/>
      <path d="M5.662,8.085L5.317,8.317L5.085,8.662L5,9.083L5,12.92L5.085,13.34L5.317,13.68L5.662,13.91L6.083,14L7.3,14L7.038,13.97L6.794,13.9L6.381,13.62L6.102,13.21L6.026,12.96L6,12.7L6,10.3L6.026,10.04L6.102,9.794L6.381,9.381L6.794,9.102L7.038,9.026L7.3,9L9,9L9,8L6.083,8zM14,9L14.98,9L14.92,8.662L14.68,8.317L14.34,8.085L14,8.017zz" fill="#cfcfcf"/>
    </g>
    <g id="overlay">
      <path d="M15.7,10h-2.7V7.3c0,-0.166,-0.134,-0.3,-0.3,-0.3h-2.4c-0.166,0,-0.3,0.134,-0.3,0.3v2.7H7.3c-0.166,0,-0.3,0.134,-0.3,0.3v2.4c0,0.166,0.134,0.3,0.3,0.3h2.7v2.7c0,0.166,0.134,0.3,0.3,0.3h2.4c0.166,0,0.3,-0.134,0.3,-0.3v-2.7h2.7c0.166,0,0.3,-0.134,0.3,-0.3v-2.4C16,10.134,15.866,10,15.7,10z" fill="#4EA17E"/>
    </g>
  </g>
</svg>